<svg xmlns="http://www.w3.org/2000/svg" viewBox="0 0 201.1 201.1"><defs><style>.cls-1{fill:#00f5d4;}.cls-2{fill:#fee96c;}.cls-3{fill:#00bbf9;}.cls-4{fill:#464349;}.cls-5{fill:#9b5de5;}.cls-6{fill:#fa6cc1;}</style></defs><g id="Layer_2" data-name="Layer 2"><g id="Layer_3" data-name="Layer 3"><circle class="cls-1" cx="100.55" cy="100.55" r="100.55"/><circle class="cls-2" cx="100.55" cy="100.55" r="92.88"/><path class="cls-3" d="M62.37,112.16v46.6a23.84,23.84,0,0,1,0-46.6Z"/><path class="cls-4" d="M62.37,112.16h-.69v46.6h.69l.15-.67a23.15,23.15,0,0,1,0-45.25l-.15-.68h0l-.14-.67a24.53,24.53,0,0,0,0,48l.83.18V111.31l-.83.18Z"/><path class="cls-5" d="M66.84,162.62h0a4,4,0,0,1-4-4V112.29a4,4,0,1,1,8,0V158.6A4,4,0,0,1,66.84,162.62Z"/><path class="cls-4" d="M66.84,162.62v-.69a3.31,3.31,0,0,1-3.33-3.33V112.29a3.33,3.33,0,0,1,6.66,0V158.6a3.33,3.33,0,0,1-3.33,3.33v1.38a4.7,4.7,0,0,0,4.7-4.71V112.29a4.71,4.71,0,0,0-9.41,0V158.6a4.71,4.71,0,0,0,4.71,4.71Z"/><path class="cls-6" d="M43.3,135.46a23.74,23.74,0,0,0,2.07,9.73h-.55a5.87,5.87,0,0,1-5.07-2.93l-2.27-3.94a5.83,5.83,0,0,1,0-5.85l2.27-3.94a5.85,5.85,0,0,1,5.07-2.93h.61A23.68,23.68,0,0,0,43.3,135.46Z"/><path class="cls-4" d="M43.3,135.46h-.69a24.44,24.44,0,0,0,2.13,10l.63-.28v-.69h-.55a5.17,5.17,0,0,1-4.47-2.59L38.07,138a5.17,5.17,0,0,1,0-5.16l2.28-3.94a5.16,5.16,0,0,1,4.47-2.58h.61v-.69l-.62-.29a24.43,24.43,0,0,0-2.2,10.15H44a23,23,0,0,1,2.07-9.58l.45-1H44.82a6.56,6.56,0,0,0-5.67,3.27l-2.27,3.94a6.52,6.52,0,0,0,0,6.54l2.27,3.94a6.54,6.54,0,0,0,5.67,3.28h1.61l-.43-1a23,23,0,0,1-2-9.44Z"/><rect class="cls-1" x="52.02" y="90.79" width="4.96" height="41.02" rx="2.08"/><path class="cls-4" d="M54.9,131.81v-.69h-.8a1.38,1.38,0,0,1-1.39-1.39V92.86a1.4,1.4,0,0,1,.4-1,1.42,1.42,0,0,1,1-.41h.8a1.39,1.39,0,0,1,1,.41,1.41,1.41,0,0,1,.41,1v36.87a1.37,1.37,0,0,1-.41,1,1.35,1.35,0,0,1-1,.41v1.38a2.77,2.77,0,0,0,2.77-2.77V92.86A2.76,2.76,0,0,0,54.9,90.1h-.8a2.76,2.76,0,0,0-2.77,2.76v36.87a2.77,2.77,0,0,0,2.77,2.77h.8Z"/><path class="cls-1" d="M52,94.24h0a21.27,21.27,0,0,1-.88-8.11c3.34-26.35,21.61-47.66,49.44-47.66S146.64,59.77,150,86.13a21,21,0,0,1-.89,8.11h0c-.64,1.53-1.19.41-1.44-2.33-3.23-25.1-20.56-45.41-47.11-45.41S56.66,66.81,53.43,91.91C53.19,94.65,52.64,95.77,52,94.24Z"/><path class="cls-4" d="M52,94.24l.64-.27a7.39,7.39,0,0,1-.34-1.08,23.58,23.58,0,0,1-.56-5.1c0-.55,0-1.09.07-1.6l-.69-.06.68.08c1.66-13,7-24.81,15.35-33.31a45.76,45.76,0,0,1,33.41-13.74A45.77,45.77,0,0,1,134,52.9c8.34,8.5,13.69,20.27,15.34,33.31l.69-.08-.69.06c0,.51.07,1,.07,1.6a25.77,25.77,0,0,1-.27,3.59c-.09.56-.19,1.07-.3,1.51a6.45,6.45,0,0,1-.33,1.08l.63.27v-.69h-.45l-.18.42a1.28,1.28,0,0,1-.19.35h0v0h0v0l.18.2-.11-.25s-.07,0-.07,0l.18.2-.11-.25.19.41v-.45a.45.45,0,0,0-.19,0l.19.41v0l.27-.36a.51.51,0,0,0-.27-.08v.44l.27-.36-.15.21.18-.18,0,0-.15.21.18-.18-.06.06.07,0h0l-.06.06.07,0,0,0a3.29,3.29,0,0,1-.25-.85,14.66,14.66,0,0,1-.22-1.61h0c-1.63-12.69-6.83-24.18-15-32.52a44.88,44.88,0,0,0-32.79-13.5,44.89,44.89,0,0,0-32.8,13.5c-8.17,8.34-13.37,19.83-15,32.52h0a12.49,12.49,0,0,1-.34,2.09,1.57,1.57,0,0,1-.16.41h0l.2.16-.13-.22a.23.23,0,0,0-.07.06l.2.16-.13-.22.23.4v-.46a.48.48,0,0,0-.23.06l.23.4v0l.23-.37a.46.46,0,0,0-.23-.06v.43l.23-.37-.13.22.16-.2,0,0-.13.22.16-.2-.05.07.06-.06h0l-.05.07.06-.06a1.22,1.22,0,0,1-.19-.36l-.64.27-.63.27a2.7,2.7,0,0,0,.39.69,1.18,1.18,0,0,0,.31.27,1,1,0,0,0,.49.15,1,1,0,0,0,.56-.19,1.21,1.21,0,0,0,.27-.29,2.67,2.67,0,0,0,.28-.56,7.69,7.69,0,0,0,.27-1.12c.08-.43.14-.93.19-1.49l-.69-.06.69.09c1.59-12.42,6.68-23.63,14.62-31.72a43.52,43.52,0,0,1,31.81-13.09,43.52,43.52,0,0,1,31.81,13.09c7.94,8.09,13,19.3,14.62,31.72l.68-.09L147,92a13.22,13.22,0,0,0,.38,2.35,2.62,2.62,0,0,0,.33.78,1.14,1.14,0,0,0,.3.33,1,1,0,0,0,.55.19,1,1,0,0,0,.5-.15,1.43,1.43,0,0,0,.42-.43,3.72,3.72,0,0,0,.28-.53l-.64-.27v.69h.46l.18-.42a9.45,9.45,0,0,0,.4-1.29,24.26,24.26,0,0,0,.61-5.43c0-.59,0-1.17-.08-1.73h0c-1.69-13.31-7.14-25.36-15.73-34.11a47.14,47.14,0,0,0-34.39-14.15,47.12,47.12,0,0,0-34.4,14.16c-8.58,8.74-14,20.79-15.73,34.1h0c-.05.56-.07,1.14-.07,1.73a25.8,25.8,0,0,0,.29,3.8c.09.59.19,1.14.31,1.63a9.39,9.39,0,0,0,.41,1.29Z"/><rect class="cls-6" x="49.46" y="81.85" width="10.04" height="19.88" rx="2.06"/><path class="cls-4" d="M57.44,101.72V101H51.52a1.41,1.41,0,0,1-1-.41,1.34,1.34,0,0,1-.4-1V83.9a1.34,1.34,0,0,1,.4-1,1.41,1.41,0,0,1,1-.41h5.92a1.41,1.41,0,0,1,1,.41,1.34,1.34,0,0,1,.4,1V99.67a1.34,1.34,0,0,1-.4,1,1.41,1.41,0,0,1-1,.41v1.37a2.75,2.75,0,0,0,2.75-2.74V83.9a2.75,2.75,0,0,0-2.75-2.74H51.52a2.75,2.75,0,0,0-2.75,2.74V99.67a2.75,2.75,0,0,0,2.75,2.74h5.92Z"/><path class="cls-3" d="M138.72,112.16v46.6a23.84,23.84,0,0,0,0-46.6Z"/><path class="cls-4" d="M138.72,112.16H138v47.46l.84-.18a24.53,24.53,0,0,0,0-47.95l-.84-.18v.85h.69l-.14.68a23.15,23.15,0,0,1,0,45.25l.14.67h.69v-46.6h-.69l-.14.68Z"/><path class="cls-5" d="M134.26,162.62h0a4,4,0,0,0,4-4V112.29a4,4,0,1,0-8,0V158.6A4,4,0,0,0,134.26,162.62Z"/><path class="cls-4" d="M134.26,162.62v.69A4.71,4.71,0,0,0,139,158.6V112.29a4.71,4.71,0,0,0-9.42,0V158.6a4.71,4.71,0,0,0,4.71,4.71v-1.38a3.33,3.33,0,0,1-3.33-3.33V112.29a3.28,3.28,0,0,1,1-2.35,3.32,3.32,0,0,1,2.35-1,3.36,3.36,0,0,1,2.36,1,3.31,3.31,0,0,1,1,2.35V158.6a3.31,3.31,0,0,1-3.33,3.33Z"/><path class="cls-6" d="M157.79,135.46a23.73,23.73,0,0,1-2.06,9.73h.55a5.84,5.84,0,0,0,5.06-2.93l2.28-3.94a5.83,5.83,0,0,0,0-5.85l-2.28-3.94a5.82,5.82,0,0,0-5.06-2.93h-.62A23.68,23.68,0,0,1,157.79,135.46Z"/><path class="cls-4" d="M157.79,135.46h-.69a23,23,0,0,1-2,9.44l-.44,1h1.62a6.54,6.54,0,0,0,5.66-3.28l2.28-3.94a6.58,6.58,0,0,0,0-6.54l-2.28-3.94a6.55,6.55,0,0,0-5.66-3.27h-1.69l.44,1a23,23,0,0,1,2.07,9.58h1.38a24.43,24.43,0,0,0-2.19-10.15l-.63.29v.69h.62a5.16,5.16,0,0,1,4.47,2.58l2.27,3.94a5.17,5.17,0,0,1,0,5.16l-2.27,3.94a5.17,5.17,0,0,1-4.47,2.59h-.55v.69l.63.28a24.6,24.6,0,0,0,2.12-10Z"/><rect class="cls-1" x="144.12" y="90.79" width="4.96" height="41.02" rx="2.08"/><path class="cls-4" d="M146.2,131.81v.69h.8a2.77,2.77,0,0,0,2.77-2.77V92.86A2.76,2.76,0,0,0,147,90.1h-.8a2.76,2.76,0,0,0-2.77,2.76v36.87a2.77,2.77,0,0,0,2.77,2.77v-1.38a1.4,1.4,0,0,1-1.39-1.39V92.86a1.4,1.4,0,0,1,1.39-1.39h.8a1.37,1.37,0,0,1,1,.41,1.41,1.41,0,0,1,.41,1v36.87a1.37,1.37,0,0,1-.41,1,1.33,1.33,0,0,1-1,.41h-.8Z"/><rect class="cls-6" x="141.59" y="81.85" width="10.04" height="19.88" rx="2.06"/><path class="cls-4" d="M143.65,101.72v.69h5.92a2.75,2.75,0,0,0,2.75-2.74V83.9a2.75,2.75,0,0,0-2.75-2.74h-5.92a2.74,2.74,0,0,0-2.74,2.74V99.67a2.74,2.74,0,0,0,2.74,2.74V101a1.39,1.39,0,0,1-1-.41,1.35,1.35,0,0,1-.41-1V83.9a1.35,1.35,0,0,1,.41-1,1.39,1.39,0,0,1,1-.41h5.92a1.41,1.41,0,0,1,1,.41,1.34,1.34,0,0,1,.4,1V99.67a1.34,1.34,0,0,1-.4,1,1.41,1.41,0,0,1-1,.41h-5.92Z"/></g></g></svg>