<svg xmlns="http://www.w3.org/2000/svg" viewBox="0 0 404 392.84"><defs><style>.cls-1{fill:#00f5d4;}.cls-1,.cls-2,.cls-3,.cls-4,.cls-5{stroke:#464349;stroke-miterlimit:10;stroke-width:4px;}.cls-2{fill:#00bbf9;stroke-linecap:round;}.cls-3{fill:#9b5de5;}.cls-4{fill:#fee96c;}.cls-5{fill:#fa6cc1;}</style></defs><g id="Layer_2" data-name="Layer 2"><g id="Layer_3" data-name="Layer 3"><rect class="cls-1" x="50" y="165.84" width="15.54" height="128.49" rx="6.51"/><path class="cls-2" d="M82.44,232.8v146a74.66,74.66,0,0,1,0-145.95Z"/><rect class="cls-3" x="83.82" y="220.62" width="25.18" height="170.22" rx="12.59"/><path class="cls-4" d="M22.7,305.78a74.41,74.41,0,0,0,6.48,30.45H27.46a18.33,18.33,0,0,1-15.88-9.17L4.45,314.72a18.35,18.35,0,0,1,0-18.33l7.13-12.34a18.33,18.33,0,0,1,15.88-9.17h1.92A74.35,74.35,0,0,0,22.7,305.78Z"/><path class="cls-1" d="M49.92,176.66h0c-2-4.79-3.58-16.41-2.77-25.41C57.63,68.72,114.83,2,202,2S346.37,68.71,356.85,151.25c.81,9-.75,20.62-2.77,25.41h0c-2,4.79-3.74,1.29-4.51-7.28C339.45,90.74,285.17,27.15,202,27.15S64.55,90.76,54.43,169.38C53.66,178,51.94,181.45,49.92,176.66Z"/><rect class="cls-5" x="42" y="137.84" width="31.44" height="62.26" rx="6.45"/><rect class="cls-3" x="295" y="220.62" width="25.18" height="170.22" rx="12.59" transform="translate(615.18 611.47) rotate(180)"/><path class="cls-4" d="M381.3,305.78a74.41,74.41,0,0,1-6.48,30.45h1.72a18.33,18.33,0,0,0,15.88-9.17l7.13-12.34a18.35,18.35,0,0,0,0-18.33l-7.13-12.34a18.33,18.33,0,0,0-15.88-9.17h-1.92A74.35,74.35,0,0,1,381.3,305.78Z"/><rect class="cls-1" x="338.46" y="165.84" width="15.54" height="128.49" rx="6.51" transform="translate(692.46 460.18) rotate(180)"/><rect class="cls-5" x="330.56" y="137.84" width="31.44" height="62.26" rx="6.45" transform="translate(692.56 337.95) rotate(180)"/><path class="cls-2" d="M321.56,232.8v146a74.66,74.66,0,0,0,0-145.95Z"/></g></g></svg>