<svg xmlns="http://www.w3.org/2000/svg" viewBox="0 0 444 431.73"><defs><style>.cls-1,.cls-2{fill:#fee96c;stroke:#fee96c;stroke-miterlimit:10;stroke-width:4px;}.cls-1{stroke-linecap:round;}</style></defs><g id="Layer_2" data-name="Layer 2"><g id="Layer_3" data-name="Layer 3"><path class="cls-1" d="M90.48,255.88V416.43a82.13,82.13,0,0,1,0-160.55Z"/><rect class="cls-2" x="92" y="242.49" width="27.7" height="187.24" rx="13.85"/><path class="cls-2" d="M24.77,336.15a81.72,81.72,0,0,0,7.13,33.5H30a20.16,20.16,0,0,1-17.47-10.08L4.7,346a20.18,20.18,0,0,1,0-20.17l7.84-13.58A20.16,20.16,0,0,1,30,302.17h2.11A81.73,81.73,0,0,0,24.77,336.15Z"/><rect class="cls-2" x="54.8" y="182.23" width="17.09" height="141.34" rx="7.16"/><path class="cls-2" d="M54.71,194.13h0c-2.22-5.27-3.94-18-3-27.95C63.19,75.39,126.11,2,222,2S380.8,75.38,392.33,166.18c.9,9.9-.82,22.68-3.05,27.95h0c-2.22,5.26-4.1,1.42-5-8C373.19,99.62,313.48,29.66,222,29.66S70.8,99.64,59.68,186.11C58.82,195.55,56.94,199.39,54.71,194.13Z"/><rect class="cls-2" x="46" y="151.43" width="34.58" height="68.49" rx="7.09"/><path class="cls-1" d="M353.52,255.88V416.43a82.13,82.13,0,0,0,0-160.55Z"/><rect class="cls-2" x="324.3" y="242.49" width="27.7" height="187.24" rx="13.85" transform="translate(676.3 672.21) rotate(180)"/><path class="cls-2" d="M419.23,336.15a81.72,81.72,0,0,1-7.13,33.5H414a20.16,20.16,0,0,0,17.47-10.08L439.3,346a20.18,20.18,0,0,0,0-20.17l-7.84-13.58A20.16,20.16,0,0,0,414,302.17h-2.11A81.73,81.73,0,0,1,419.23,336.15Z"/><rect class="cls-2" x="372.11" y="182.23" width="17.09" height="141.34" rx="7.16" transform="translate(761.31 505.8) rotate(180)"/><rect class="cls-2" x="363.42" y="151.43" width="34.58" height="68.49" rx="7.09" transform="translate(761.42 371.35) rotate(180)"/></g></g></svg>