<svg xmlns="http://www.w3.org/2000/svg" viewBox="0 0 536.4 521.55"><defs><style>.cls-1,.cls-2{fill:#00bbf9;stroke:#00bbf9;stroke-miterlimit:10;stroke-width:4px;}.cls-1{stroke-linecap:round;}</style></defs><g id="Layer_2" data-name="Layer 2"><g id="Layer_3" data-name="Layer 3"><path class="cls-1" d="M109.06,309.2V503.46a99.38,99.38,0,0,1,0-194.26Z"/><rect class="cls-2" x="110.9" y="292.99" width="33.51" height="226.56" rx="16.76"/><path class="cls-2" d="M29.56,406.33a98.79,98.79,0,0,0,8.62,40.53H35.89a24.41,24.41,0,0,1-21.14-12.2L5.27,418.23a24.39,24.39,0,0,1,0-24.4l9.48-16.42A24.4,24.4,0,0,1,35.89,365.2h2.56A98.82,98.82,0,0,0,29.56,406.33Z"/><rect class="cls-2" x="65.89" y="220.08" width="20.68" height="171.02" rx="8.67"/><path class="cls-2" d="M65.79,234.47h0c-2.7-6.37-4.77-21.84-3.69-33.82C76,90.81,152.18,2,268.2,2S460.35,90.8,474.3,200.65c1.08,12-1,27.45-3.69,33.82h0c-2.69,6.38-5,1.72-6-9.69C451.15,120.12,378.89,35.47,268.2,35.47S85.25,120.14,71.79,224.78C70.76,236.19,68.48,240.85,65.79,234.47Z"/><rect class="cls-2" x="55.24" y="182.81" width="41.85" height="82.87" rx="8.58"/><path class="cls-1" d="M427.34,309.2V503.46a99.38,99.38,0,0,0,0-194.26Z"/><rect class="cls-2" x="391.98" y="292.99" width="33.51" height="226.56" rx="16.76" transform="translate(817.48 812.54) rotate(-180)"/><path class="cls-2" d="M506.84,406.33a98.79,98.79,0,0,1-8.62,40.53h2.29a24.41,24.41,0,0,0,21.14-12.2l9.48-16.43a24.39,24.39,0,0,0,0-24.4l-9.48-16.42a24.4,24.4,0,0,0-21.14-12.21H498A98.82,98.82,0,0,1,506.84,406.33Z"/><rect class="cls-2" x="449.83" y="220.08" width="20.68" height="171.02" rx="8.67" transform="translate(920.35 611.17) rotate(180)"/><rect class="cls-2" x="439.31" y="182.81" width="41.85" height="82.87" rx="8.58" transform="translate(920.47 448.49) rotate(180)"/></g></g></svg>