<svg xmlns="http://www.w3.org/2000/svg" viewBox="0 0 488 474.5"><defs><style>.cls-1,.cls-2{fill:#fa6cc1;stroke:#fa6cc1;stroke-miterlimit:10;stroke-width:4px;}.cls-1{stroke-linecap:round;}</style></defs><g id="Layer_2" data-name="Layer 2"><g id="Layer_3" data-name="Layer 3"><path class="cls-1" d="M99.33,281.27v176.6a90.34,90.34,0,0,1,0-176.6Z"/><rect class="cls-2" x="101" y="266.53" width="30.47" height="205.97" rx="15.23"/><path class="cls-2" d="M27.05,369.57a89.9,89.9,0,0,0,7.84,36.85H32.81A22.18,22.18,0,0,1,13.6,395.33L5,380.4a22.21,22.21,0,0,1,0-22.19l8.63-14.93a22.16,22.16,0,0,1,19.21-11.09h2.32A89.93,89.93,0,0,0,27.05,369.57Z"/><rect class="cls-2" x="60.08" y="200.25" width="18.8" height="155.47" rx="7.88"/><path class="cls-2" d="M60,213.34h0c-2.45-5.79-4.34-19.86-3.36-30.75C69.31,82.73,138.52,2,244,2S418.69,82.72,431.37,182.59c1,10.89-.91,25-3.36,30.75h0c-2.44,5.79-4.52,1.56-5.45-8.81C410.31,109.38,344.63,32.43,244,32.43s-166.32,77-178.56,172.1C64.51,214.9,62.43,219.13,60,213.34Z"/><rect class="cls-2" x="50.4" y="166.37" width="38.04" height="75.34" rx="7.8"/><path class="cls-1" d="M388.67,281.27v176.6a90.34,90.34,0,0,0,0-176.6Z"/><rect class="cls-2" x="356.53" y="266.53" width="30.47" height="205.97" rx="15.23" transform="translate(743.53 739.04) rotate(180)"/><path class="cls-2" d="M461,369.57a89.9,89.9,0,0,1-7.84,36.85h2.08a22.18,22.18,0,0,0,19.21-11.09L483,380.4a22.21,22.21,0,0,0,0-22.19l-8.63-14.93a22.16,22.16,0,0,0-19.21-11.09h-2.32A89.93,89.93,0,0,1,461,369.57Z"/><rect class="cls-2" x="409.12" y="200.25" width="18.8" height="155.47" rx="7.88" transform="translate(837.04 555.98) rotate(180)"/><rect class="cls-2" x="399.56" y="166.37" width="38.04" height="75.34" rx="7.8" transform="translate(837.16 408.08) rotate(180)"/></g></g></svg>