<svg id="Layer_3" data-name="Layer 3" xmlns="http://www.w3.org/2000/svg" viewBox="0 0 536.4 521.55"><defs><style>.cls-1,.cls-2,.cls-7{fill:#00bbf9;}.cls-1,.cls-2{stroke:#00bbf9;}.cls-1,.cls-3,.cls-5,.cls-7{stroke-linecap:round;}.cls-1,.cls-10,.cls-11,.cls-2,.cls-3,.cls-4,.cls-5,.cls-6,.cls-7,.cls-8,.cls-9{stroke-miterlimit:10;stroke-width:4px;}.cls-11,.cls-12,.cls-18,.cls-3,.cls-4{fill:#fa6cc1;}.cls-3,.cls-4{stroke:#fa6cc1;}.cls-5,.cls-6,.cls-9{fill:#fee96c;}.cls-5,.cls-6{stroke:#fee96c;}.cls-10,.cls-11,.cls-7,.cls-8,.cls-9{stroke:#464349;}.cls-8{fill:#9b5de5;}.cls-10{fill:#00f5d4;}.cls-12{font-size:47px;letter-spacing:0.04em;}.cls-12,.cls-18{font-family:CenturyGothic-Bold, Century Gothic;font-weight:700;}.cls-13{letter-spacing:0.04em;}.cls-14{font-size:36px;letter-spacing:0.03em;}.cls-15{letter-spacing:0.03em;}.cls-16{letter-spacing:0.03em;}.cls-17{letter-spacing:0.03em;}.cls-18{font-size:28px;letter-spacing:0em;}.cls-19{letter-spacing:0.03em;}</style></defs><path class="cls-1" d="M523.86,432.42V626.68a99.38,99.38,0,0,1,0-194.26Z" transform="translate(-414.8 -123.22)"/><rect class="cls-2" x="110.9" y="292.99" width="33.51" height="226.56" rx="16.76"/><path class="cls-2" d="M444.36,529.55A98.84,98.84,0,0,0,453,570.09h-2.29a24.4,24.4,0,0,1-21.14-12.21l-9.48-16.42a24.39,24.39,0,0,1,0-24.4l9.48-16.43a24.41,24.41,0,0,1,21.14-12.2h2.56A98.74,98.74,0,0,0,444.36,529.55Z" transform="translate(-414.8 -123.22)"/><rect class="cls-2" x="65.89" y="220.08" width="20.68" height="171.02" rx="8.67"/><path class="cls-2" d="M480.59,357.7h0c-2.7-6.37-4.77-21.84-3.69-33.82C490.84,214,567,125.22,683,125.22S875.15,214,889.1,323.88c1.08,12-1,27.45-3.69,33.82h0c-2.69,6.37-5,1.72-6-9.7C866,243.34,793.69,158.7,683,158.7S500.05,243.37,486.59,348C485.56,359.42,483.28,364.07,480.59,357.7Z" transform="translate(-414.8 -123.22)"/><rect class="cls-2" x="55.24" y="182.81" width="41.85" height="82.87" rx="8.58"/><path class="cls-1" d="M842.14,432.42V626.68a99.38,99.38,0,0,0,0-194.26Z" transform="translate(-414.8 -123.22)"/><rect class="cls-2" x="806.78" y="416.21" width="33.51" height="226.56" rx="16.76" transform="translate(1232.28 935.76) rotate(-180)"/><path class="cls-2" d="M921.64,529.55A98.84,98.84,0,0,1,913,570.09h2.29a24.4,24.4,0,0,0,21.14-12.21l9.48-16.42a24.39,24.39,0,0,0,0-24.4l-9.48-16.43a24.41,24.41,0,0,0-21.14-12.2h-2.56A98.74,98.74,0,0,1,921.64,529.55Z" transform="translate(-414.8 -123.22)"/><rect class="cls-2" x="864.63" y="343.3" width="20.68" height="171.02" rx="8.67" transform="translate(1335.15 734.4) rotate(180)"/><rect class="cls-2" x="854.11" y="306.03" width="41.85" height="82.87" rx="8.58" transform="translate(1335.27 571.71) rotate(180)"/><path class="cls-3" d="M538.33,428v176.6a90.34,90.34,0,0,1,0-176.6Z" transform="translate(-414.8 -123.22)"/><rect class="cls-4" x="125.2" y="290.06" width="30.47" height="205.97" rx="15.23"/><path class="cls-4" d="M466.05,516.32a89.93,89.93,0,0,0,7.84,36.85h-2.08a22.18,22.18,0,0,1-19.21-11.09L444,527.14A22.19,22.19,0,0,1,444,505L452.6,490a22.16,22.16,0,0,1,19.21-11.09h2.32A89.93,89.93,0,0,0,466.05,516.32Z" transform="translate(-414.8 -123.22)"/><rect class="cls-4" x="84.28" y="223.78" width="18.8" height="155.47" rx="7.88"/><path class="cls-4" d="M499,360.09h0c-2.45-5.79-4.34-19.86-3.36-30.75C508.31,229.48,577.52,148.75,683,148.75s174.69,80.72,187.37,180.59c1,10.89-.91,25-3.36,30.75h0c-2.44,5.79-4.52,1.56-5.45-8.81-12.25-95.15-77.93-172.1-178.56-172.1s-166.32,77-178.56,172.1C503.51,361.65,501.43,365.88,499,360.09Z" transform="translate(-414.8 -123.22)"/><rect class="cls-4" x="74.6" y="189.9" width="38.04" height="75.34" rx="7.8"/><path class="cls-3" d="M827.67,428v176.6a90.34,90.34,0,0,0,0-176.6Z" transform="translate(-414.8 -123.22)"/><rect class="cls-4" x="795.53" y="413.28" width="30.47" height="205.97" rx="15.23" transform="translate(1206.73 909.31) rotate(180)"/><path class="cls-4" d="M900,516.32a89.93,89.93,0,0,1-7.84,36.85h2.08a22.18,22.18,0,0,0,19.21-11.09L922,527.14A22.19,22.19,0,0,0,922,505L913.4,490a22.16,22.16,0,0,0-19.21-11.09h-2.32A89.93,89.93,0,0,1,900,516.32Z" transform="translate(-414.8 -123.22)"/><rect class="cls-4" x="848.12" y="347" width="18.8" height="155.47" rx="7.88" transform="translate(1300.24 726.25) rotate(180)"/><rect class="cls-4" x="838.56" y="313.12" width="38.04" height="75.34" rx="7.8" transform="translate(1300.36 578.36) rotate(180)"/><path class="cls-5" d="M551.48,424V584.56a82.12,82.12,0,0,1,0-160.54Z" transform="translate(-414.8 -123.22)"/><rect class="cls-6" x="138.2" y="287.4" width="27.7" height="187.24" rx="13.85"/><path class="cls-6" d="M485.77,504.29a81.79,81.79,0,0,0,7.13,33.5H491a20.16,20.16,0,0,1-17.47-10.08l-7.84-13.58a20.18,20.18,0,0,1,0-20.17l7.84-13.57A20.17,20.17,0,0,1,491,470.3h2.11A81.78,81.78,0,0,0,485.77,504.29Z" transform="translate(-414.8 -123.22)"/><rect class="cls-6" x="101" y="227.14" width="17.09" height="141.34" rx="7.16"/><path class="cls-6" d="M515.71,362.26h0c-2.22-5.26-3.94-18.05-3-27.95C524.19,243.53,587.11,170.14,683,170.14s158.8,73.38,170.33,164.17c.9,9.9-.82,22.69-3.05,27.95h0c-2.22,5.27-4.1,1.42-5-8C834.19,267.75,774.48,197.8,683,197.8s-151.2,70-162.32,156.45C519.82,363.68,517.94,367.53,515.71,362.26Z" transform="translate(-414.8 -123.22)"/><rect class="cls-6" x="92.2" y="196.34" width="34.58" height="68.49" rx="7.09"/><path class="cls-5" d="M814.52,424V584.56a82.12,82.12,0,0,0,0-160.54Z" transform="translate(-414.8 -123.22)"/><rect class="cls-6" x="785.3" y="410.62" width="27.7" height="187.24" rx="13.85" transform="translate(1183.5 885.26) rotate(180)"/><path class="cls-6" d="M880.23,504.29a81.79,81.79,0,0,1-7.13,33.5H875a20.16,20.16,0,0,0,17.47-10.08l7.84-13.58a20.18,20.18,0,0,0,0-20.17l-7.84-13.57A20.17,20.17,0,0,0,875,470.3h-2.11A81.78,81.78,0,0,1,880.23,504.29Z" transform="translate(-414.8 -123.22)"/><rect class="cls-6" x="833.11" y="350.36" width="17.09" height="141.34" rx="7.16" transform="translate(1268.51 718.84) rotate(180)"/><rect class="cls-6" x="824.42" y="319.56" width="34.58" height="68.49" rx="7.09" transform="translate(1268.62 584.39) rotate(180)"/><path class="cls-7" d="M563.44,420.38v146a74.66,74.66,0,0,1,0-146Z" transform="translate(-414.8 -123.22)"/><rect class="cls-8" x="150.02" y="284.98" width="25.18" height="170.22" rx="12.59"/><path class="cls-9" d="M503.7,493.35a74.42,74.42,0,0,0,6.48,30.46h-1.72a18.33,18.33,0,0,1-15.88-9.17l-7.13-12.34a18.35,18.35,0,0,1,0-18.33l7.13-12.34a18.33,18.33,0,0,1,15.88-9.17h1.92A74.31,74.31,0,0,0,503.7,493.35Z" transform="translate(-414.8 -123.22)"/><rect class="cls-10" x="116.2" y="230.2" width="15.54" height="128.49" rx="6.51"/><path class="cls-10" d="M530.92,364.24h0c-2-4.79-3.58-16.41-2.77-25.41C538.63,256.3,595.83,189.58,683,189.58s144.37,66.71,154.85,149.25c.81,9-.75,20.62-2.77,25.41h0c-2,4.79-3.74,1.29-4.51-7.29C820.45,278.32,766.17,214.73,683,214.73S545.55,278.34,535.43,357C534.66,365.53,532.94,369,530.92,364.24Z" transform="translate(-414.8 -123.22)"/><rect class="cls-11" x="108.2" y="202.2" width="31.44" height="62.26" rx="6.45"/><path class="cls-7" d="M802.56,420.38v146a74.66,74.66,0,0,0,0-146Z" transform="translate(-414.8 -123.22)"/><rect class="cls-8" x="776" y="408.2" width="25.18" height="170.22" rx="12.59" transform="translate(1162.38 863.4) rotate(180)"/><path class="cls-9" d="M862.3,493.35a74.42,74.42,0,0,1-6.48,30.46h1.72a18.33,18.33,0,0,0,15.88-9.17l7.13-12.34a18.35,18.35,0,0,0,0-18.33l-7.13-12.34a18.33,18.33,0,0,0-15.88-9.17h-1.92A74.31,74.31,0,0,1,862.3,493.35Z" transform="translate(-414.8 -123.22)"/><rect class="cls-10" x="819.46" y="353.42" width="15.54" height="128.49" rx="6.51" transform="translate(1239.66 712.11) rotate(180)"/><rect class="cls-11" x="811.56" y="325.42" width="31.44" height="62.26" rx="6.45" transform="translate(1239.76 589.88) rotate(180)"/><text class="cls-12" transform="translate(225.45 339.02)">mi<tspan class="cls-13" x="59.17" y="0">x</tspan><tspan class="cls-14"><tspan x="42.75" y="41"> </tspan></tspan><tspan class="cls-15"><tspan x="-21.44" y="82">m</tspan><tspan class="cls-16" x="24.15" y="82">a</tspan><tspan class="cls-17" x="56.62" y="82">s</tspan><tspan class="cls-13" x="78.72" y="82">h</tspan></tspan></text><text class="cls-18" transform="translate(255.89 377.31)">n<tspan class="cls-19" x="16.79" y="0">’</tspan></text></svg>